<svg xmlns="http://www.w3.org/2000/svg" width="25.031" height="22.03" viewBox="0 0 25.031 22.03">
  <defs>
    <style>
      .cls-1 {
        fill: #f1d3cc;
        fill-rule: evenodd;
      }
    </style>
  </defs>
  <path id="LikeButton" class="cls-1" d="M635.586,4131s-19.866-15.73-9.741-20.87c5.84-2.97,9.641.83,9.641,0.83s3.8-3.8,9.642-.83c10.125,5.14-9.542,20.87-9.542,20.87m-0.167-17.13a12.813,12.813,0,0,0-2.034-1.59,5.776,5.776,0,0,0-5.783-.14,2.271,2.271,0,0,0-1.436,1.79,3.138,3.138,0,0,0-.031.45c0,3.47,5.061,9.12,9.438,13.01,4.312-3.88,9.286-9.5,9.286-12.97a3.133,3.133,0,0,0-.033-0.47,2.315,2.315,0,0,0-1.455-1.81c-2.957-1.5-4.6-.57-5.587.01a12.359,12.359,0,0,0-2.365,1.72" transform="translate(-622.969 -4108.97)"/>
</svg>
